<svg xmlns="http://www.w3.org/2000/svg" viewBox="0 0 1000 1000"><path d="M476.3 67.42c-18.85 8.62-19.39 11.85-19.39 103.15 0 78.1 0 79.45 6.19 88.34 4.04 5.92 10.23 10.5 17.51 13.2 9.97 3.5 12.66 3.5 22.62 0 5.92-2.15 13.73-7.54 16.7-11.58 5.39-7.27 5.65-10.77 5.65-90.49 0-74.33-.54-83.49-4.85-89.95-10.5-16.17-26.92-20.75-44.43-12.67zm171.28 56.29l-8.88 7.81-.81 57.9c-1.08 67.33.54 74.6 17.24 81.6 13.2 5.66 25.05 2.96 35.01-7.27l7.81-8.08.8-47.67c1.35-61.41-.27-74.6-10.23-84.57-11.04-10.76-28.54-10.76-40.94.28zm-345.8 35.01c-15.89 9.7-17.24 14.01-17.24 54.94 0 42.82 2.69 50.9 18.04 57.63 12.39 5.12 25.05 2.69 33.4-6.2 6.19-6.46 6.46-9.16 8.08-49.01.81-23.16.54-44.98-.54-48.21-2.69-7.27-15.35-14.27-25.85-14.27-4.04 0-11.31 2.43-15.89 5.12zm-189.6 192.83c-1.89 2.42-4.04 10.23-4.85 17.51l-1.35 13.47H62.36c-38.78 0-44.17.54-47.94 4.85-6.73 7.54-5.66 18.04 2.42 24.51 6.73 5.12 10.77 5.66 51.17 5.66h43.9l2.96 15.35c18.31 94.8 68.14 181.52 137.08 238.89 37.97 31.78 70.83 50.63 129.27 74.6 4.31 1.88 5.39 3.5 3.77 5.92-17.51 22.36-111.77 153.78-114.19 158.9-7.27 15.89 7.81 30.7 23.16 22.89 4.04-2.15 31.51-37.7 66.79-86.99 68.95-95.88 54.94-85.91 110.96-79.45 27.74 2.96 66.79 2.69 96.68-.81 4.04-.27 19.93 19.39 66.79 82.95 40.4 54.94 63.83 84.3 68.14 85.64 11.04 3.77 21.28-2.96 22.35-14.54.81-8.89-3.77-15.89-54.67-84.57-30.44-40.94-55.75-75.68-56.02-77.29-.27-1.35 10.5-6.46 23.97-11.31C746.43 708.94 838 617.37 878.39 508.03c8.08-22.09 15.08-48.48 21.81-81.87 1.08-5.93 1.88-5.93 41.21-5.93 35.28 0 40.4-.54 44.16-4.85 6.73-7.54 5.66-18.04-2.42-24.51-6.46-5.12-10.77-5.66-47.13-5.66H895.9v-11.58c0-22.62 37.97-20.74-391.32-20.74-251.27 0-381.89-.81-382.97-2.69-2.43-3.76-5.66-3.23-9.43 1.35z"/></svg>
