<svg id="Capa_1" xmlns="http://www.w3.org/2000/svg" viewBox="0 0 512 512"><style>.st0{fill:#fff}</style><path class="st0" d="M511.8 404c1.1 8.3-1.4 15.5-7.6 21.7l-72.1 71.5c-3.3 3.6-7.5 6.7-12.7 9.2-5.2 2.5-10.4 4.2-15.4 4.9-.4 0-1.4.1-3.3.3-1.8.2-4.2.3-7 .3-6.9 0-18-1.2-33.3-3.5-15.4-2.3-34.1-8.1-56.4-17.3-22.2-9.2-47.4-23-75.6-41.5-28.2-18.4-58.2-43.7-90-75.9-25.3-24.9-46.3-48.8-62.9-71.5-16.6-22.8-30-43.8-40.1-63.1-10.1-19.3-17.7-36.9-22.8-52.6s-8.5-29.3-10.3-40.7S-.2 125.5.1 119c.4-6.5.5-10.1.5-10.8.8-5.2 2.4-10.4 4.9-15.6s5.6-9.5 9.2-12.7L86.8 7.8C91.9 2.7 97.6.2 104.1.2c4.7 0 8.9 1.4 12.5 4.1s6.7 6.1 9.2 10l58 110c3.3 5.8 4.2 12.1 2.7 19-1.4 6.9-4.5 12.6-9.2 17.3l-26.6 26.6c-.7.7-1.4 1.9-1.9 3.5s-.8 3-.8 4.1c1.4 7.6 4.7 16.3 9.8 26 4.3 8.7 11 19.2 20.1 31.7s21.9 26.8 38.5 43.1c16.3 16.6 30.7 29.5 43.4 38.8 12.6 9.2 23.2 16 31.7 20.3s15 7 19.5 7.9l6.8 1.4c.7 0 1.9-.3 3.5-.8s2.8-1.2 3.5-1.9l30.9-31.4c6.5-5.8 14.1-8.7 22.8-8.7 6.1 0 11 1.1 14.6 3.3h.5l104.6 61.8c7.6 4.5 12.1 10.4 13.6 17.7z"/></svg>
