<svg xmlns="http://www.w3.org/2000/svg" viewBox="0 0 1000 1000"><path d="M254.24 62.41v40.71h40.7V21.7h-40.7v40.71zM88.11 100.06l-14.5 14.5 27.48 27.48c15.01 15.01 28.49 27.22 30.02 27.22 3.31 0 26.46-23.41 26.46-26.97 0-1.27-12.21-14.76-27.48-29.77L102.87 85.3l-14.76 14.76zm329.46 13.99l-28.49 28.5 13.48 13.48c7.38 7.12 14.5 13.23 15.77 13.23 1.53 0 15.01-12.21 30.02-27.48l27.22-27.22-14.76-14.76-14.5-14.5-28.74 28.75zm-158.25 32.32c-78.61 12.47-136.37 83.45-131.53 161.55 3.05 46.05 26.46 89.04 63.1 115.76 12.98 9.16 13.23 8.9 16.03-18.32l1.78-17.04-10.18-10.69c-5.85-5.85-14.76-19.34-20.1-29.77-9.16-19.08-9.41-19.84-9.41-48.85 0-27.73.51-30.28 8.14-46.56 9.67-20.35 31.04-44.01 48.59-53.43 34.6-18.83 78.36-18.83 112.96 0 17.55 9.41 38.92 33.07 48.59 53.43 7.63 16.54 8.14 18.83 8.14 47.07v30.02h38.68l1.78-9.67c11.45-70.22-37.65-146.54-107.87-167.91-20.1-6.1-49.87-8.65-68.7-5.59zM10 286.29v20.35h81.42v-40.7H10v20.35zm447.77 0v20.35h81.42v-40.7h-81.42v20.35z"/><path d="M235.41 356.77c-.76 5.34-15.26 120.08-32.06 255.18-16.79 135.09-31.29 249.83-32.06 254.92l-1.53 9.67H501v61.06H391.6v40.7h381.62v-40.7h-109.4v-61.06H990l-1.53-9.67c-.76-5.09-15.27-119.83-32.05-254.92-16.79-135.09-31.29-249.83-32.06-255.18l-1.53-9.41H236.94l-1.53 9.41zm222.36 36.89c0 6.87-6.87 79.63-9.16 95.4L447.34 500H259.32v-5.85c0-3.05 2.8-27.99 6.36-55.21 3.56-27.22 6.36-49.87 6.36-50.37 0-.25 41.72-.51 92.86-.51h92.86v5.6zm223.88-1.28c0 2.54 2.29 27.48 5.09 55.46s5.09 51.14 5.09 51.39c0 .51-45.79.76-102.02.76H487.79l1.53-12.21c1.78-13.48 9.16-91.59 9.16-96.68 0-2.29 20.1-3.05 91.59-3.05 85.47.01 91.58.26 91.58 4.33zm206.07-3.81c0 .51 2.8 23.15 6.36 50.37 3.56 27.22 6.36 52.16 6.36 55.21V500H732.78l-1.27-8.4c-1.78-10.18-9.16-91.08-9.16-98.2 0-5.34.76-5.34 82.68-5.34 45.55 0 82.69.25 82.69.51zM442.5 548.85c0 10.43-9.92 120.85-11.7 128.48l-1.02 5.85H236.42v-5.34c0-7.13 15.26-129.75 16.54-134.08.76-2.29 22.13-3.05 95.41-3.05h94.13v8.14zm258.74 51.64c3.05 32.06 6.1 63.86 6.87 70.47l1.27 12.21H470.23l1.27-8.4c.76-4.33 3.82-35.11 6.87-67.93 2.8-32.82 5.6-61.31 6.11-63.09 1.02-2.54 23.41-3.05 106.09-2.54l105.07.76 5.6 58.52zm213.71 3.82c4.33 34.35 8.14 66.15 8.14 70.47l.25 8.4h-173l-1.02-5.85c-.76-3.05-3.82-32.56-6.61-65.38s-5.85-62.34-6.61-65.65l-1.02-5.6 85.74.51 85.99.76 8.14 62.34zM426.22 730.75c-.76 4.07-3.31 29.26-5.6 55.97l-4.32 49.1H215.57l1.27-7.12c.76-3.82 3.82-29 7.12-55.97l5.85-48.85h197.94l-1.53 6.87zm286.98-1.27c1.53 7.38 9.16 90.57 9.16 99.48v6.87h-264.6v-6.61c0-9.16 7.63-92.86 9.16-99.73l1.02-5.6h244.24l1.02 5.59zm222.1 38.93c3.05 23.66 6.11 48.59 6.87 55.21l1.78 12.21H763.83L759.5 788c-2.29-26.2-5.09-51.39-5.85-55.97l-1.27-8.14 88.54.51 88.79.76 5.59 43.25zM623.14 907.06v30.53h-81.42v-61.06h81.42v30.53zM100.32 431.31l-27.99 27.98 14.76 14.5 14.5 14.76 27.99-27.99c15.26-15.27 27.99-29 27.99-30.53 0-3.31-23.41-26.71-26.97-26.71-1.28 0-15.02 12.72-30.28 27.99z"/></svg>
