<svg xmlns="http://www.w3.org/2000/svg" width="583.536" height="583.536" viewBox="0 0 583.536 583.536"><path d="M582.854 403.206a4.873 4.873 0 0 0-6.408-1.853c-12.643 6.454-26.761 9.03-41.042 10.491-8.079-6.734-16.792-13.353-26.154-19.956.84-5.428 2.081-10.608 3.93-15.388a4.872 4.872 0 0 0-2.576-6.207 4.85 4.85 0 0 0-6.329 2.277c-1.764 3.528-4.732 6.902-8.4 10.207-1.647-1.083-3.211-2.161-4.9-3.248l-14.991-10.398-55.641-129.913a7.15 7.15 0 0 0-6.58-4.324L82.016 198.86c-.038 0-.065.009-.093.009a7.206 7.206 0 0 0-1.596.206c-.14.032-.28.096-.411.133a7.076 7.076 0 0 0-1.111.441c-.177.086-.332.187-.5.287-.149.096-.308.156-.462.261l-12.26 8.76c-2.39 1.704-3.342 4.646-2.707 7.418-7.813-.633-17.166-1.09-26.754-.329-21.179 1.657-32.817 7.799-35.58 18.775-8.427 33.393 84.129 93.389 85.067 93.99a983.099 983.099 0 0 0 32.497 20.013l50.376 120.331a7.149 7.149 0 0 0 6.539 4.243h143.933l7.001 23.666-52.626 35.083a4.792 4.792 0 0 0-1.82 5.685 4.793 4.793 0 0 0 5.148 3.023l104.916-14.985 17.297-3.557c.672-.648 1.399-1.251 2.044-1.923a96.845 96.845 0 0 1 2.482-2.497c1.326-1.307 2.754-2.697 4.145-4.331l1.857-2.076c.374-.416.766-.901 1.139-1.321l-25.146 5.176v-8.909l27.274 1.293c.578-.682 1.147-1.288 1.727-1.998a122.76 122.76 0 0 1-5.073-7.729l-23.933-1.134v-23.457h13.833c-.383-1.867-.598-3.71-.803-5.554 2.441.714 4.858 1.461 7.309 2.161.616 12.834 6.776 26.546 18.79 41.616-1.293 1.693-2.576 3.322-3.897 4.863-2.613 3.332-5.33 6.234-7.784 9.007-2.418 2.838-4.9 5.045-7.001 7.239a76.096 76.096 0 0 1-5.74 5.428c-3.305 2.936-5.134 4.69-5.134 4.69l9.959 3.435 21.021-24.866c1.563-1.55 3.184-3.136 4.836-4.761.476-.508.942-1.078 1.409-1.605 9.119 1.602 17.445 2.455 24.717 2.455 5.208 0 9.922-.448 14.281-1.251l.009.005c7.458 2.763 14.188 4.009 20.302 4.009 19.005 0 31.993-12.097 42.303-28.235 22.995-.247 36.459-6.31 41.023-18.58 4.023-10.809-.401-23.093-13.292-37.443 5.867-11.402 12.125-20.979 19.892-26.28 2.112-1.475 2.747-4.322 1.435-6.534zm-61.181 9.819c-1.195.089-2.39.173-3.575.257-3.505.252-6.991.509-10.454.789.037-3.827.168-7.604.42-11.313a394.061 394.061 0 0 1 13.609 10.267zm-54.016-26.896a392.148 392.148 0 0 0 8.568-5.194l9.437 6.543c.817.527 1.559 1.041 2.361 1.563-7.028 4.985-15.429 9.866-24.091 14.894-24.806 14.384-52.92 30.681-57.652 56.261a1482.306 1482.306 0 0 1-19.401-5.764 1430.883 1430.883 0 0 1-40.108-12.918l-5.965-14.113 6.646-8.425 56.938 2.072 7.668 5.008a92.749 92.749 0 0 1 9.862-10.006l-9.344-6.487-10.604-25.104 5.67-7.191 57.457 2.889 2.558 5.972zm-97.972 72.928h-15.504l-2.465-5.833c5.96 1.973 11.939 3.92 17.969 5.833zM154.654 358.514l-18.901-44.851 60.327 3.906 11.08 7.229 13.506 31.896-5.67 6.086-57.886-2.913c-.832-.448-1.634-.905-2.456-1.353zm228.145 12.717l-58.712-2.959-11.724-8.144-11.901-28.151 5.741-7.276 59.122 3.831 10.791 7.043 12.451 29.468-5.768 6.188zm13.699 12.56l10.939 25.893-6.034 6.479-59.197-2.151-10.007-6.949-11.294-26.729 5.638-7.15 58.193 2.931 11.762 7.676zm-89.011-22.92l-5.848 6.277-66.25-3.337-9.246-6.418-13.24-31.288 5.582-7.084 64.644 4.187 11.654 7.607 12.704 30.056zm54.656-37.342l-59.3-3.841-10.721-7.453-12.302-29.115 4.915-6.235 61.199 4.788 10.249 6.681 12.078 28.609-6.118 6.566zm-75.093-10.99l-5.386 5.787-65.899-4.275-11.294-7.85-12.662-29.914 4.966-6.284 68.219 5.337 8.755 5.71 13.301 31.489zm-87.573-5.881l-5.572 5.979-60.224-3.897-19.042-45.161 59.907 4.684 11.985 7.829 12.946 30.566zm16.61 60.961l12.732 8.312 10.066 23.793c-24.754-10.897-48.691-22.431-71.761-34.569l48.963 2.464zm29.174 34.919l-11.201-26.452 5.731-7.271 65.087 3.28 10.146 6.623 12.358 29.221-4.993 5.357-56.589-2.062a1280.282 1280.282 0 0 1-20.539-8.696zm78.033 15.57l11.574 7.556 5.824 13.768a1348.183 1348.183 0 0 1-61.853-22.938l44.455 1.614zm139.718-42.835l-59.024-2.973-10.127-7.048-12.2-28.861 5.115-6.473 58.432 3.785 17.804 41.57zm-19.909-46.502l-58.124-3.762-11.5-7.99-11.499-27.232 5.096-6.461 58.535 4.583 17.492 40.862zm-34.051-79.539l14.435 33.722-57.484-4.499-12.484-8.679-11.724-27.743 67.257 7.199zm-72.685-7.771l12.2 28.871-5.872 6.293-57.703-4.511-13.917-9.668-12.377-29.293 77.669 8.308zm-83.117-8.888l13.133 31.064-6.09 6.541-65.628-5.136-10.8-7.5-14.365-33.925 83.75 8.956zm-89.187-9.54l14.347 33.869-5.96 6.403-59.897-4.693-18.136-43.03 69.646 7.451zM90.78 320.776c-27.508-17.698-86.089-63.33-80.976-83.63 2.007-7.983 15.824-10.701 27.06-11.581 8.314-.661 17.39-.443 29.41.679l.098-.98 45.476 108.64c-7.099-4.321-14.16-8.68-21.068-13.128zm69.764 51.716c24.334 12.867 49.621 25.066 75.821 36.562l-.999 1.078-59.879-2.18-14.943-35.46zm36.487 86.565l-19.49-46.251 59.738 2.171 11.145 7.267 15.588 36.809H197.03v.004zm72.162 0l-14.953-35.329 4.135-5.251c28.133 11.7 57.251 22.626 87.302 32.749l3.314 7.831h-79.798zm26.957 69.362l35.833-23.886 31.652 14.248-67.485 9.638zm79.677-14.627l-19.41-8.746 19.41.92v7.826zm0-17.394l-40.669-1.928-6.239-21.076h46.903v23.004h.005zm63.753 9.956a347.565 347.565 0 0 0 5.04-6.591c2.8-4.158 5.787-8.312 8.415-12.666 2.669-4.331 5.101-8.783 7.519-13.147 2.398-4.368 4.499-8.812 6.543-13.062 4.084-8.546 7.444-16.666 10.226-23.672 2.81-6.978 5.003-12.857 6.562-16.983 1.586-4.088 2.427-6.496 2.427-6.496.009 0-6.356 7.967-14.006 21.002-3.907 6.444-8.205 14.09-12.825 22.196-2.315 4.037-4.705 8.204-7.141 12.442-2.455 4.21-4.938 8.484-7.599 12.634-2.454 4.279-5.236 8.326-7.85 12.414-2.235 3.02-4.233 6.138-6.348 9.092-12.068-15.756-16.923-29.375-14.691-41.514 3.911-21.184 28.843-35.647 52.962-49.63 10.09-5.843 19.779-11.542 27.792-17.627.766.513 1.531 1.035 2.282 1.544-1.372 12.793-1.036 26.327-.625 39.624.784 25.379 1.508 49.345-10.627 61.862-8.882 9.156-24.675 11.923-48.056 8.578zm48.043 3.849a36.871 36.871 0 0 0 7.014-5.646c10.272-10.6 13.143-26.117 13.661-43.685.196-.121.42-.177.606-.331l.089-.074 33.444-28.213-34.084 17.646c-.056-4.682-.205-9.46-.35-14.291-.112-3.911-.225-7.85-.304-11.766a852.18 852.18 0 0 1 11.08-.845c14.053-.994 28.44-2.012 42.283-5.591-6.795 10.043-12.433 22.551-18.285 35.507-13.814 30.631-26.947 59.781-55.154 57.289zm78.229-40.095c-2.661 7.159-11.458 11.243-26.369 12.177 4.396-8.177 8.354-16.896 12.181-25.361a961.778 961.778 0 0 1 5.32-11.626c8.27 10.015 11.276 18.347 8.868 24.81zm-98.984-302.193c-28.105 0-50.974-22.869-50.974-50.974 0-28.11 22.868-50.979 50.974-50.979s50.974 22.869 50.974 50.979c-.001 28.105-22.869 50.974-50.974 50.974zm0-92.394c-22.836 0-41.416 18.582-41.416 41.42 0 22.836 18.58 41.416 41.416 41.416s41.416-18.58 41.416-41.416c0-22.838-18.58-41.42-41.416-41.42zM332.712 207.529a2.39 2.39 0 0 1-1.302-4.392l77.786-50.654a2.397 2.397 0 0 1 3.304.698 2.389 2.389 0 0 1-.695 3.302l-77.791 50.659a2.343 2.343 0 0 1-1.302.387zm78.734-128.675a2.4 2.4 0 0 1-1.433-.479l-10.996-8.235a2.395 2.395 0 0 1-.48-3.347 2.405 2.405 0 0 1 3.347-.48l10.991 8.232a2.394 2.394 0 0 1 .48 3.347 2.374 2.374 0 0 1-1.909.962zm33.472-23.709a2.4 2.4 0 0 1-2.287-1.689l-4.046-13.122a2.384 2.384 0 0 1 1.577-2.987 2.393 2.393 0 0 1 2.987 1.575l4.046 13.124a2.38 2.38 0 0 1-1.577 2.987 2.218 2.218 0 0 1-.7.112zm41.019.49c-.256 0-.518-.042-.774-.124a2.395 2.395 0 0 1-1.489-3.033l4.448-13c.42-1.25 1.778-1.906 3.033-1.491a2.398 2.398 0 0 1 1.489 3.036l-4.448 12.998a2.377 2.377 0 0 1-2.259 1.614zm32.898 24.518c-.746 0-1.488-.35-1.955-1.015a2.395 2.395 0 0 1 .578-3.326l11.229-7.908a2.395 2.395 0 0 1 3.327.579 2.39 2.39 0 0 1-.578 3.326l-11.225 7.908a2.41 2.41 0 0 1-1.376.436zm25.931 39.365h-.038l-13.73-.206a2.393 2.393 0 0 1-2.352-2.422 2.393 2.393 0 0 1 2.39-2.357h.042l13.726.205a2.394 2.394 0 0 1 2.353 2.427 2.393 2.393 0 0 1-2.391 2.353zm-15.882 46.892a2.41 2.41 0 0 1-1.438-.479l-10.991-8.232a2.396 2.396 0 0 1-.481-3.347 2.395 2.395 0 0 1 3.342-.483l10.996 8.235a2.39 2.39 0 0 1 .48 3.344 2.382 2.382 0 0 1-1.908.962zm1.176 195.245a2.376 2.376 0 0 1-2.311-1.802l-45.644-179.771a2.384 2.384 0 0 1 1.722-2.9 2.383 2.383 0 0 1 2.903 1.725l45.644 179.771a2.383 2.383 0 0 1-1.727 2.902 2.295 2.295 0 0 1-.587.075zm-137.212-60.14a2.386 2.386 0 0 1-2.203-3.309l50.549-120.135a2.394 2.394 0 0 1 3.132-1.281 2.392 2.392 0 0 1 1.274 3.132l-50.55 120.132a2.377 2.377 0 0 1-2.202 1.461zM128.406 134.366a2.394 2.394 0 0 1-2.385-2.245 2.386 2.386 0 0 1 2.24-2.53l269.892-16.654c1.4-.068 2.45.922 2.535 2.235a2.393 2.393 0 0 1-2.236 2.534l-269.897 16.655c-.051 0-.097.005-.149.005zm283.045-55.512a2.375 2.375 0 0 1-1.433-.483l-10.996-8.24a2.387 2.387 0 0 1-.48-3.341 2.392 2.392 0 0 1 3.347-.481l10.99 8.237a2.395 2.395 0 0 1-1.428 4.308zm33.472-23.709a2.4 2.4 0 0 1-2.287-1.689l-4.051-13.122a2.384 2.384 0 0 1 1.577-2.987 2.393 2.393 0 0 1 2.987 1.575l4.051 13.124a2.38 2.38 0 0 1-1.578 2.987 2.212 2.212 0 0 1-.699.112zm41.019.499c-.257 0-.518-.038-.771-.124a2.402 2.402 0 0 1-1.498-3.034l4.443-13.005c.43-1.246 1.807-1.911 3.033-1.491a2.404 2.404 0 0 1 1.499 3.036l-4.443 13.002a2.39 2.39 0 0 1-2.263 1.616zm32.884 24.514a2.38 2.38 0 0 1-1.955-1.02 2.395 2.395 0 0 1 .579-3.326l11.238-7.903a2.388 2.388 0 0 1 2.749 3.904l-11.234 7.904c-.42.291-.901.441-1.377.441z"/></svg>
