<svg width="3004" height="3004" viewBox="0 0 3004 3004" xmlns="http://www.w3.org/2000/svg" xmlns:xlink="http://www.w3.org/1999/xlink"><svg width="2002" height="2002" viewBox="-1.02 -1.02 2050.05 2050.05" id="anchor"><path d="M1088 384q0-26-19-45t-45-19-45 19-19 45 19 45 45 19 45-19 19-45zm832 928v352q0 22-20 30-8 2-12 2-13 0-23-9l-93-93q-119 143-318.5 226.5T1024 1904t-429.5-83.5T276 1594l-93 93q-9 9-23 9-4 0-12-2-20-8-20-30v-352q0-14 9-23t23-9h352q22 0 30 20 8 19-7 35l-100 100q67 91 189.5 153.5T896 1671v-647H704q-26 0-45-19t-19-45V832q0-26 19-45t45-19h192V605q-58-34-93-92.5T768 384q0-106 75-181t181-75 181 75 75 181q0 70-35 128.5t-93 92.5v163h192q26 0 45 19t19 45v128q0 26-19 45t-45 19h-192v647q149-20 271.5-82.5T1613 1435l-100-100q-15-16-7-35 8-20 30-20h352q14 0 23 9t9 23z"/></svg><svg id="comment" data-name="Layer 1" width="66" height="66" viewBox="-1 -1 66 66" x="2781.54" y="1002"><defs><style>.bcls-1{fill:#2f5572}</style></defs><title>comment</title><path class="bcls-1" d="M.72.08A.67.67 0 0 0 0 .8v46.48a.72.72 0 0 0 .72.72H48l16 16V.72a.67.67 0 0 0-.72-.72H.8z"/></svg><svg id="facebook" data-name="Layer 1" width="23.23" height="44.01" viewBox="-1 -1 23.23 44.01" x="2971.54" y="1002"><defs><style>.ccls-1{fill:#fff}</style></defs><title>facebook</title><path class="ccls-1" d="M21.23.31V7H17.4a3.55 3.55 0 0 0-2.85.91 4.26 4.26 0 0 0-.74 2.72v4.77H21l-1 7.47h-6.19V42H6.27V22.85H0v-7.47h6.27V9.85q0-4.69 2.55-7.28A9 9 0 0 1 15.63 0a39.57 39.57 0 0 1 5.6.31z"/></svg><svg id="fire" data-name="Layer 1" width="58" height="66" viewBox="-1 -1 58 66" x="2847.54" y="1002"><defs><style>.dcls-1{fill:#d4953d}</style></defs><title>Untitled-2</title><path class="dcls-1" d="M16 0C24 16 0 24 0 40s16 24 16 24C8.16 48.16 32 40 32 24S16 0 16 0zm24 24c8 16-16 24-16 40h24c3.2 0 8-4 8-16 0-16-16-24-16-24z"/></svg><svg id="globe" data-name="Layer 1" width="66" height="66" viewBox="-1 -1 66 66" x="2905.54" y="1002"><defs><style>.ecls-1{fill:#fff}</style></defs><title>globe</title><path class="ecls-1" d="M32 0a32 32 0 1 0 32 32A32 32 0 0 0 32 0zm0 8a23.75 23.75 0 0 1 7.52 1.52c-1.68 1.6-3.6 3-3.28 4.48s5.52 1 5.52 4c0 2.16-3.36 2.8-1 5.28 2.8 2.8-5.12 7.84-5.28 11.52-.24 6.64 6.72 7.76 12.24 7.76 3.36 0 4.24 1.6 4 3.52a24.07 24.07 0 0 1-19.76 10 22.94 22.94 0 0 1-8.48-1.76c1.76-3.52-2.24-10.48-6-12.72-1.84-1.84-5.76-1.12-8-2a23.49 23.49 0 0 1-1.52-6.72 1.42 1.42 0 0 1 1.28-.72c1.52 0 3.6 3 4.72 2.72 1.4-.32-5.96-10.48-2.52-12.48 1.6-1 4.8 3.12 3.76-1.28-1-4.08 2.88-2.24 5.28-3.28 2.08-.88 3.6-3.28 1-4.72a8.55 8.55 0 0 1-1.76-1.52A23.75 23.75 0 0 1 32 8.08V8zm18.48 8.72A26.46 26.46 0 0 1 54 22.48v.24a11.78 11.78 0 0 1-1.76 1.76C50 26.72 49.68 22.8 48.72 22c-1-1-4.8.16-5.28-1-.56-1.48 4-3.4 7.04-4.28z"/></svg><svg viewBox="-1 -1 1002 1002" width="1002" height="1002" id="grill" x="2002"><path d="M4763 4435.8c-188.5-86.2-193.9-118.5-193.9-1031.5 0-781 0-794.5 61.9-883.4 40.4-59.2 102.3-105 175.1-132 99.7-35 126.6-35 226.2 0 59.2 21.5 137.3 75.4 167 115.8 53.9 72.7 56.5 107.7 56.5 904.9 0 743.3-5.4 834.9-48.5 899.5-105 161.7-269.2 207.5-444.3 126.7zm1712.8-562.9l-88.8-78.1-8.1-579c-10.8-673.3 5.4-746 172.4-816 132-56.6 250.5-29.6 350.1 72.7l78.1 80.8 8 476.7c13.5 614.1-2.7 746-102.3 845.7-110.4 107.6-285.4 107.6-409.4-2.8zm-3458-350.1c-158.9-97-172.4-140.1-172.4-549.4 0-428.2 26.9-509 180.4-576.3 123.9-51.2 250.5-26.9 334 62 61.9 64.6 64.6 91.6 80.8 490.1 8.1 231.6 5.4 449.8-5.4 482.1-26.9 72.7-153.5 142.7-258.5 142.7-40.4 0-113.1-24.3-158.9-51.2zm-1896-1928.3c-18.9-24.2-40.4-102.3-48.5-175.1l-13.5-134.7H623.6c-387.8 0-441.7-5.4-479.4-48.5-67.3-75.4-56.6-180.4 24.2-245.1 67.3-51.2 107.7-56.6 511.7-56.6h439l29.6-153.5c183.1-948 681.4-1815.2 1370.8-2388.9 379.7-317.8 708.3-506.3 1292.7-746 43.1-18.8 53.9-35 37.7-59.2-175.1-223.6-1117.7-1537.8-1141.9-1589-72.7-158.9 78.1-307 231.6-228.9 40.4 21.5 315.1 377 667.9 869.9 689.5 958.8 549.4 859.1 1109.6 794.5 277.4-29.6 667.9-26.9 966.8 8.1 40.4 2.7 199.3-193.9 667.9-829.5 404-549.4 638.3-843 681.4-856.4 110.4-37.7 212.8 29.6 223.5 145.4 8.1 88.9-37.7 158.9-546.7 845.7-304.4 409.4-557.5 756.8-560.2 772.9-2.7 13.5 105 64.6 239.7 113.1C7464.3-1979.4 8380-1063.7 8783.9 29.7c80.8 220.9 150.8 484.8 218.1 818.7 10.8 59.3 18.8 59.3 412.1 59.3 352.8 0 404 5.4 441.6 48.5 67.3 75.4 56.6 180.4-24.2 245.1-64.6 51.2-107.7 56.6-471.3 56.6H8959v115.8c0 226.2 379.7 207.4-3913.2 207.4-2512.7 0-3818.9 8.1-3829.7 26.9-24.3 37.6-56.6 32.3-94.3-13.5z" transform="matrix(.1 0 0 -.1 0 511)"/></svg><svg viewBox="-1 -1 66 66" width="66" height="66" id="hot-tub" x="2587.54" y="1002"><path d="M51.4 33.3c3.3 2.3 5.3 5.2 5.3 8.4 0 7.5-11.1 13.5-24.7 13.5s-24.7-6-24.7-13.5c0-3.2 2-6.1 5.3-8.4C6.1 36.3 2 40.8 2 45.7 2 54.7 15.4 62 32 62s30-7.3 30-16.3c0-4.9-4.1-9.4-10.6-12.4"/><path d="M20.3 2s-1.8 6.1-1.8 13.3c0 6 4.6 8.9 4.6 13.9 0 9.9-6.3 16.2-6.3 16.2s2.3-5.1 2.3-13.8c0-3-4.3-9.7-4.3-14C14.8 8.3 20.3 2 20.3 2m13.1 0s-1.8 6.1-1.8 13.3c0 6 4.6 8.9 4.6 13.9 0 9.9-6.3 16.2-6.3 16.2s2.3-5.1 2.3-13.8c0-3-4.3-9.7-4.3-14C27.8 8.3 33.4 2 33.4 2m13.1 0s-1.8 6.1-1.8 13.3c0 6 4.6 8.9 4.6 13.9 0 9.9-6.3 16.2-6.3 16.2s2.3-5.1 2.3-13.8c0-3-4.3-9.7-4.3-14C40.9 8.3 46.5 2 46.5 2"/></svg><svg id="instagram" data-name="Layer 1" width="44.01" height="44.01" viewBox="-1 -1 44.01 44.01" x="2707.32" y="1068"><defs><style>.hcls-1{fill:#fff}</style></defs><title>instagram</title><path class="hcls-1" d="M37.25 35.49V17.77h-3.69a11.77 11.77 0 0 1 .57 3.58 12.12 12.12 0 0 1-1.75 6.36 12.76 12.76 0 0 1-4.76 4.59 13.13 13.13 0 0 1-6.56 1.7 12.78 12.78 0 0 1-9.19-3.71 12 12 0 0 1-3.83-9 11.77 11.77 0 0 1 .49-3.56H4.68v17.76a1.63 1.63 0 0 0 1.6 1.67h29.3a1.63 1.63 0 0 0 1.17-.47 1.59 1.59 0 0 0 .5-1.2zm-7.77-14.57A7.75 7.75 0 0 0 27 15.14a8.28 8.28 0 0 0-6-2.4 8.25 8.25 0 0 0-5.91 2.39 7.75 7.75 0 0 0-2.47 5.78 7.75 7.75 0 0 0 2.47 5.79A8.25 8.25 0 0 0 21 29.1a8.28 8.28 0 0 0 6-2.4 7.75 7.75 0 0 0 2.48-5.78zm7.76-9.84V6.56a1.84 1.84 0 0 0-.54-1.31 1.8 1.8 0 0 0-1.31-.56h-4.78a1.8 1.8 0 0 0-1.31.56 1.84 1.84 0 0 0-.54 1.31v4.52A1.87 1.87 0 0 0 30.6 13h4.8a1.87 1.87 0 0 0 1.85-1.89zM42 5.39v31.23A5.41 5.41 0 0 1 36.62 42H5.39a5.19 5.19 0 0 1-3.8-1.59A5.19 5.19 0 0 1 0 36.62V5.39a5.19 5.19 0 0 1 1.59-3.8A5.19 5.19 0 0 1 5.39 0h31.23a5.19 5.19 0 0 1 3.8 1.59A5.19 5.19 0 0 1 42 5.39z"/></svg><svg viewBox="-1 -1 54.83 54.83" width="54.83" height="54.83" id="laundry" x="2587.54" y="1118"><g fill="#030104"><path d="M49.861 10.698V4.424A4.43 4.43 0 0 0 45.436 0H7.392a4.43 4.43 0 0 0-4.424 4.424v6.274c0 .97.652 1.782 1.538 2.045-.934.812-1.538 1.994-1.538 3.325v32.338a4.428 4.428 0 0 0 4.424 4.422h38.044a4.43 4.43 0 0 0 4.425-4.424V16.068c0-1.332-.604-2.514-1.538-3.325a2.14 2.14 0 0 0 1.538-2.045zM4.968 4.424A2.426 2.426 0 0 1 7.391 2h38.044a2.427 2.427 0 0 1 2.425 2.424v6.274a.142.142 0 0 1-.142.142H5.109a.14.14 0 0 1-.141-.142V4.424zm42.893 43.981a2.427 2.427 0 0 1-2.425 2.424H7.392a2.426 2.426 0 0 1-2.424-2.422V16.068a2.426 2.426 0 0 1 2.424-2.424h38.044a2.427 2.427 0 0 1 2.425 2.424v32.337z"/><path d="M10.862 8.919h9.559c.905 0 1.642-.736 1.642-1.642V5.565c0-.905-.737-1.642-1.642-1.642h-9.559c-.904 0-1.641.736-1.642 1.642v1.712c0 .905.737 1.642 1.642 1.642zm-.642-3.353c0-.354.289-.643.642-.643h9.559c.354 0 .642.288.642.642v1.712a.643.643 0 0 1-.642.642h-9.559a.643.643 0 0 1-.642-.642V5.566zm23.04 3.352h.855c.905 0 1.643-.736 1.643-1.642V5.564c0-.905-.737-1.642-1.643-1.642h-.855c-.904 0-1.641.736-1.641 1.642v1.712a1.645 1.645 0 0 0 1.641 1.642zm-.641-3.354c0-.354.287-.642.641-.642h.855c.354 0 .643.288.643.642v1.712a.643.643 0 0 1-.643.642h-.855a.642.642 0 0 1-.641-.642V5.564zm6.871 3.354h.855c.903 0 1.64-.736 1.643-1.642V5.564c0-.905-.737-1.642-1.643-1.642h-.855c-.905 0-1.642.736-1.642 1.642v1.712a1.645 1.645 0 0 0 1.642 1.642zm-.641-3.354c0-.354.288-.642.642-.642h.855c.354 0 .643.288.643.642v1.711a.645.645 0 0 1-.643.643h-.855a.643.643 0 0 1-.642-.642V5.564zm4.127 25.531h-.047c-.699-8.617-7.922-15.419-16.716-15.419-9.255 0-16.785 7.53-16.785 16.785s7.53 16.785 16.785 16.785c8.746 0 15.942-6.728 16.709-15.277h.054c.632 0 1.142-.512 1.142-1.143v-.59c0-.63-.51-1.141-1.142-1.141zM26.214 47.246c-8.152 0-14.785-6.633-14.785-14.785s6.633-14.785 14.785-14.785c7.691 0 14.023 5.905 14.716 13.419H37.9c-.68-5.849-5.657-10.405-11.686-10.405-6.491 0-11.771 5.281-11.771 11.771s5.28 11.771 11.771 11.771c5.979 0 10.92-4.483 11.664-10.263h3.045c-.759 7.447-7.066 13.277-14.709 13.277zm9.629-13.277h1.023c-.737 5.226-5.227 9.263-10.653 9.263-5.939 0-10.771-4.832-10.771-10.771S20.274 21.69 26.213 21.69c5.476 0 10 4.11 10.675 9.405h-1.045c-.631 0-1.142.511-1.142 1.142v.59c0 .63.511 1.142 1.142 1.142z"/><path d="M20.296 24.711c-2.844 1.946-3.463 4.756-3.488 4.875a.5.5 0 1 0 .979.206c.005-.024.558-2.533 3.074-4.255a.5.5 0 0 0-.565-.826z"/></g></svg><svg id="mail" data-name="Layer 1" width="66" height="50" viewBox="-1 -1 66 50" x="2587.54" y="1068"><defs><style>.jcls-1{fill:#fff}</style></defs><title>mail</title><path class="jcls-1" d="M0 0v8l32 16L64 8V0H0zm0 16v32h64V16L32 32z"/></svg><svg id="phone" viewBox="-1 -1 514 514" width="514" height="514" x="1516" y="2002"><style>.kst0{fill:#fff}</style><path class="kst0" d="M511.8 404c1.1 8.3-1.4 15.5-7.6 21.7l-72.1 71.5c-3.3 3.6-7.5 6.7-12.7 9.2-5.2 2.5-10.4 4.2-15.4 4.9-.4 0-1.4.1-3.3.3-1.8.2-4.2.3-7 .3-6.9 0-18-1.2-33.3-3.5-15.4-2.3-34.1-8.1-56.4-17.3-22.2-9.2-47.4-23-75.6-41.5-28.2-18.4-58.2-43.7-90-75.9-25.3-24.9-46.3-48.8-62.9-71.5-16.6-22.8-30-43.8-40.1-63.1-10.1-19.3-17.7-36.9-22.8-52.6s-8.5-29.3-10.3-40.7S-.2 125.5.1 119c.4-6.5.5-10.1.5-10.8.8-5.2 2.4-10.4 4.9-15.6s5.6-9.5 9.2-12.7L86.8 7.8C91.9 2.7 97.6.2 104.1.2c4.7 0 8.9 1.4 12.5 4.1s6.7 6.1 9.2 10l58 110c3.3 5.8 4.2 12.1 2.7 19-1.4 6.9-4.5 12.6-9.2 17.3l-26.6 26.6c-.7.7-1.4 1.9-1.9 3.5s-.8 3-.8 4.1c1.4 7.6 4.7 16.3 9.8 26 4.3 8.7 11 19.2 20.1 31.7s21.9 26.8 38.5 43.1c16.3 16.6 30.7 29.5 43.4 38.8 12.6 9.2 23.2 16 31.7 20.3s15 7 19.5 7.9l6.8 1.4c.7 0 1.9-.3 3.5-.8s2.8-1.2 3.5-1.9l30.9-31.4c6.5-5.8 14.1-8.7 22.8-8.7 6.1 0 11 1.1 14.6 3.3h.5l104.6 61.8c7.6 4.5 12.1 10.4 13.6 17.7z"/></svg><svg width="585.54" height="585.54" viewBox="-1 -1 585.54 585.54" id="solar" x="2002" y="1002"><path d="M582.854 403.206a4.873 4.873 0 0 0-6.408-1.853c-12.643 6.454-26.761 9.03-41.042 10.491-8.079-6.734-16.792-13.353-26.154-19.956.84-5.428 2.081-10.608 3.93-15.388a4.872 4.872 0 0 0-2.576-6.207 4.85 4.85 0 0 0-6.329 2.277c-1.764 3.528-4.732 6.902-8.4 10.207-1.647-1.083-3.211-2.161-4.9-3.248l-14.991-10.398-55.641-129.913a7.15 7.15 0 0 0-6.58-4.324L82.016 198.86c-.038 0-.065.009-.093.009a7.206 7.206 0 0 0-1.596.206c-.14.032-.28.096-.411.133a7.076 7.076 0 0 0-1.111.441c-.177.086-.332.187-.5.287-.149.096-.308.156-.462.261l-12.26 8.76c-2.39 1.704-3.342 4.646-2.707 7.418-7.813-.633-17.166-1.09-26.754-.329-21.179 1.657-32.817 7.799-35.58 18.775-8.427 33.393 84.129 93.389 85.067 93.99a983.099 983.099 0 0 0 32.497 20.013l50.376 120.331a7.149 7.149 0 0 0 6.539 4.243h143.933l7.001 23.666-52.626 35.083a4.792 4.792 0 0 0-1.82 5.685 4.793 4.793 0 0 0 5.148 3.023l104.916-14.985 17.297-3.557c.672-.648 1.399-1.251 2.044-1.923a96.845 96.845 0 0 1 2.482-2.497c1.326-1.307 2.754-2.697 4.145-4.331l1.857-2.076c.374-.416.766-.901 1.139-1.321l-25.146 5.176v-8.909l27.274 1.293c.578-.682 1.147-1.288 1.727-1.998a122.76 122.76 0 0 1-5.073-7.729l-23.933-1.134v-23.457h13.833c-.383-1.867-.598-3.71-.803-5.554 2.441.714 4.858 1.461 7.309 2.161.616 12.834 6.776 26.546 18.79 41.616-1.293 1.693-2.576 3.322-3.897 4.863-2.613 3.332-5.33 6.234-7.784 9.007-2.418 2.838-4.9 5.045-7.001 7.239a76.096 76.096 0 0 1-5.74 5.428c-3.305 2.936-5.134 4.69-5.134 4.69l9.959 3.435 21.021-24.866c1.563-1.55 3.184-3.136 4.836-4.761.476-.508.942-1.078 1.409-1.605 9.119 1.602 17.445 2.455 24.717 2.455 5.208 0 9.922-.448 14.281-1.251l.009.005c7.458 2.763 14.188 4.009 20.302 4.009 19.005 0 31.993-12.097 42.303-28.235 22.995-.247 36.459-6.31 41.023-18.58 4.023-10.809-.401-23.093-13.292-37.443 5.867-11.402 12.125-20.979 19.892-26.28 2.112-1.475 2.747-4.322 1.435-6.534zm-61.181 9.819c-1.195.089-2.39.173-3.575.257-3.505.252-6.991.509-10.454.789.037-3.827.168-7.604.42-11.313a394.061 394.061 0 0 1 13.609 10.267zm-54.016-26.896a392.148 392.148 0 0 0 8.568-5.194l9.437 6.543c.817.527 1.559 1.041 2.361 1.563-7.028 4.985-15.429 9.866-24.091 14.894-24.806 14.384-52.92 30.681-57.652 56.261a1482.306 1482.306 0 0 1-19.401-5.764 1430.883 1430.883 0 0 1-40.108-12.918l-5.965-14.113 6.646-8.425 56.938 2.072 7.668 5.008a92.749 92.749 0 0 1 9.862-10.006l-9.344-6.487-10.604-25.104 5.67-7.191 57.457 2.889 2.558 5.972zm-97.972 72.928h-15.504l-2.465-5.833c5.96 1.973 11.939 3.92 17.969 5.833zM154.654 358.514l-18.901-44.851 60.327 3.906 11.08 7.229 13.506 31.896-5.67 6.086-57.886-2.913c-.832-.448-1.634-.905-2.456-1.353zm228.145 12.717l-58.712-2.959-11.724-8.144-11.901-28.151 5.741-7.276 59.122 3.831 10.791 7.043 12.451 29.468-5.768 6.188zm13.699 12.56l10.939 25.893-6.034 6.479-59.197-2.151-10.007-6.949-11.294-26.729 5.638-7.15 58.193 2.931 11.762 7.676zm-89.011-22.92l-5.848 6.277-66.25-3.337-9.246-6.418-13.24-31.288 5.582-7.084 64.644 4.187 11.654 7.607 12.704 30.056zm54.656-37.342l-59.3-3.841-10.721-7.453-12.302-29.115 4.915-6.235 61.199 4.788 10.249 6.681 12.078 28.609-6.118 6.566zm-75.093-10.99l-5.386 5.787-65.899-4.275-11.294-7.85-12.662-29.914 4.966-6.284 68.219 5.337 8.755 5.71 13.301 31.489zm-87.573-5.881l-5.572 5.979-60.224-3.897-19.042-45.161 59.907 4.684 11.985 7.829 12.946 30.566zm16.61 60.961l12.732 8.312 10.066 23.793c-24.754-10.897-48.691-22.431-71.761-34.569l48.963 2.464zm29.174 34.919l-11.201-26.452 5.731-7.271 65.087 3.28 10.146 6.623 12.358 29.221-4.993 5.357-56.589-2.062a1280.282 1280.282 0 0 1-20.539-8.696zm78.033 15.57l11.574 7.556 5.824 13.768a1348.183 1348.183 0 0 1-61.853-22.938l44.455 1.614zm139.718-42.835l-59.024-2.973-10.127-7.048-12.2-28.861 5.115-6.473 58.432 3.785 17.804 41.57zm-19.909-46.502l-58.124-3.762-11.5-7.99-11.499-27.232 5.096-6.461 58.535 4.583 17.492 40.862zm-34.051-79.539l14.435 33.722-57.484-4.499-12.484-8.679-11.724-27.743 67.257 7.199zm-72.685-7.771l12.2 28.871-5.872 6.293-57.703-4.511-13.917-9.668-12.377-29.293 77.669 8.308zm-83.117-8.888l13.133 31.064-6.09 6.541-65.628-5.136-10.8-7.5-14.365-33.925 83.75 8.956zm-89.187-9.54l14.347 33.869-5.96 6.403-59.897-4.693-18.136-43.03 69.646 7.451zM90.78 320.776c-27.508-17.698-86.089-63.33-80.976-83.63 2.007-7.983 15.824-10.701 27.06-11.581 8.314-.661 17.39-.443 29.41.679l.098-.98 45.476 108.64c-7.099-4.321-14.16-8.68-21.068-13.128zm69.764 51.716c24.334 12.867 49.621 25.066 75.821 36.562l-.999 1.078-59.879-2.18-14.943-35.46zm36.487 86.565l-19.49-46.251 59.738 2.171 11.145 7.267 15.588 36.809H197.03v.004zm72.162 0l-14.953-35.329 4.135-5.251c28.133 11.7 57.251 22.626 87.302 32.749l3.314 7.831h-79.798zm26.957 69.362l35.833-23.886 31.652 14.248-67.485 9.638zm79.677-14.627l-19.41-8.746 19.41.92v7.826zm0-17.394l-40.669-1.928-6.239-21.076h46.903v23.004h.005zm63.753 9.956a347.565 347.565 0 0 0 5.04-6.591c2.8-4.158 5.787-8.312 8.415-12.666 2.669-4.331 5.101-8.783 7.519-13.147 2.398-4.368 4.499-8.812 6.543-13.062 4.084-8.546 7.444-16.666 10.226-23.672 2.81-6.978 5.003-12.857 6.562-16.983 1.586-4.088 2.427-6.496 2.427-6.496.009 0-6.356 7.967-14.006 21.002-3.907 6.444-8.205 14.09-12.825 22.196-2.315 4.037-4.705 8.204-7.141 12.442-2.455 4.21-4.938 8.484-7.599 12.634-2.454 4.279-5.236 8.326-7.85 12.414-2.235 3.02-4.233 6.138-6.348 9.092-12.068-15.756-16.923-29.375-14.691-41.514 3.911-21.184 28.843-35.647 52.962-49.63 10.09-5.843 19.779-11.542 27.792-17.627.766.513 1.531 1.035 2.282 1.544-1.372 12.793-1.036 26.327-.625 39.624.784 25.379 1.508 49.345-10.627 61.862-8.882 9.156-24.675 11.923-48.056 8.578zm48.043 3.849a36.871 36.871 0 0 0 7.014-5.646c10.272-10.6 13.143-26.117 13.661-43.685.196-.121.42-.177.606-.331l.089-.074 33.444-28.213-34.084 17.646c-.056-4.682-.205-9.46-.35-14.291-.112-3.911-.225-7.85-.304-11.766a852.18 852.18 0 0 1 11.08-.845c14.053-.994 28.44-2.012 42.283-5.591-6.795 10.043-12.433 22.551-18.285 35.507-13.814 30.631-26.947 59.781-55.154 57.289zm78.229-40.095c-2.661 7.159-11.458 11.243-26.369 12.177 4.396-8.177 8.354-16.896 12.181-25.361a961.778 961.778 0 0 1 5.32-11.626c8.27 10.015 11.276 18.347 8.868 24.81zm-98.984-302.193c-28.105 0-50.974-22.869-50.974-50.974 0-28.11 22.868-50.979 50.974-50.979s50.974 22.869 50.974 50.979c-.001 28.105-22.869 50.974-50.974 50.974zm0-92.394c-22.836 0-41.416 18.582-41.416 41.42 0 22.836 18.58 41.416 41.416 41.416s41.416-18.58 41.416-41.416c0-22.838-18.58-41.42-41.416-41.42zM332.712 207.529a2.39 2.39 0 0 1-1.302-4.392l77.786-50.654a2.397 2.397 0 0 1 3.304.698 2.389 2.389 0 0 1-.695 3.302l-77.791 50.659a2.343 2.343 0 0 1-1.302.387zm78.734-128.675a2.4 2.4 0 0 1-1.433-.479l-10.996-8.235a2.395 2.395 0 0 1-.48-3.347 2.405 2.405 0 0 1 3.347-.48l10.991 8.232a2.394 2.394 0 0 1 .48 3.347 2.374 2.374 0 0 1-1.909.962zm33.472-23.709a2.4 2.4 0 0 1-2.287-1.689l-4.046-13.122a2.384 2.384 0 0 1 1.577-2.987 2.393 2.393 0 0 1 2.987 1.575l4.046 13.124a2.38 2.38 0 0 1-1.577 2.987 2.218 2.218 0 0 1-.7.112zm41.019.49c-.256 0-.518-.042-.774-.124a2.395 2.395 0 0 1-1.489-3.033l4.448-13c.42-1.25 1.778-1.906 3.033-1.491a2.398 2.398 0 0 1 1.489 3.036l-4.448 12.998a2.377 2.377 0 0 1-2.259 1.614zm32.898 24.518c-.746 0-1.488-.35-1.955-1.015a2.395 2.395 0 0 1 .578-3.326l11.229-7.908a2.395 2.395 0 0 1 3.327.579 2.39 2.39 0 0 1-.578 3.326l-11.225 7.908a2.41 2.41 0 0 1-1.376.436zm25.931 39.365h-.038l-13.73-.206a2.393 2.393 0 0 1-2.352-2.422 2.393 2.393 0 0 1 2.39-2.357h.042l13.726.205a2.394 2.394 0 0 1 2.353 2.427 2.393 2.393 0 0 1-2.391 2.353zm-15.882 46.892a2.41 2.41 0 0 1-1.438-.479l-10.991-8.232a2.396 2.396 0 0 1-.481-3.347 2.395 2.395 0 0 1 3.342-.483l10.996 8.235a2.39 2.39 0 0 1 .48 3.344 2.382 2.382 0 0 1-1.908.962zm1.176 195.245a2.376 2.376 0 0 1-2.311-1.802l-45.644-179.771a2.384 2.384 0 0 1 1.722-2.9 2.383 2.383 0 0 1 2.903 1.725l45.644 179.771a2.383 2.383 0 0 1-1.727 2.902 2.295 2.295 0 0 1-.587.075zm-137.212-60.14a2.386 2.386 0 0 1-2.203-3.309l50.549-120.135a2.394 2.394 0 0 1 3.132-1.281 2.392 2.392 0 0 1 1.274 3.132l-50.55 120.132a2.377 2.377 0 0 1-2.202 1.461zM128.406 134.366a2.394 2.394 0 0 1-2.385-2.245 2.386 2.386 0 0 1 2.24-2.53l269.892-16.654c1.4-.068 2.45.922 2.535 2.235a2.393 2.393 0 0 1-2.236 2.534l-269.897 16.655c-.051 0-.097.005-.149.005zm283.045-55.512a2.375 2.375 0 0 1-1.433-.483l-10.996-8.24a2.387 2.387 0 0 1-.48-3.341 2.392 2.392 0 0 1 3.347-.481l10.99 8.237a2.395 2.395 0 0 1-1.428 4.308zm33.472-23.709a2.4 2.4 0 0 1-2.287-1.689l-4.051-13.122a2.384 2.384 0 0 1 1.577-2.987 2.393 2.393 0 0 1 2.987 1.575l4.051 13.124a2.38 2.38 0 0 1-1.578 2.987 2.212 2.212 0 0 1-.699.112zm41.019.499c-.257 0-.518-.038-.771-.124a2.402 2.402 0 0 1-1.498-3.034l4.443-13.005c.43-1.246 1.807-1.911 3.033-1.491a2.404 2.404 0 0 1 1.499 3.036l-4.443 13.002a2.39 2.39 0 0 1-2.263 1.616zm32.884 24.514a2.38 2.38 0 0 1-1.955-1.02 2.395 2.395 0 0 1 .579-3.326l11.238-7.903a2.388 2.388 0 0 1 2.749 3.904l-11.234 7.904c-.42.291-.901.441-1.377.441z"/></svg><svg viewBox="-1 -1 1002 1002" width="1002" height="1002" id="solar-2" y="2002"><path d="M2542.4 4485.9v-407.1h407V4893h-407v-407.1zM881.1 4109.4l-145-145 274.8-274.8c150.1-150.1 284.9-272.2 300.2-272.2 33.1 0 264.6 234.1 264.6 269.7 0 12.7-122.1 147.6-274.8 297.7L1028.7 4257l-147.6-147.6zm3294.6-139.9l-284.9-285 134.8-134.8c73.8-71.2 145-132.3 157.7-132.3 15.3 0 150.1 122.1 300.2 274.8l272.2 272.2-147.6 147.6-145 145-287.4-287.5zm-1582.5-323.2c-786.1-124.7-1363.7-834.5-1315.3-1615.5 30.5-460.5 264.6-890.4 631-1157.6 129.8-91.6 132.3-89 160.3 183.2l17.8 170.4-101.8 106.9c-58.5 58.5-147.6 193.4-201 297.7-91.6 190.8-94.1 198.4-94.1 488.5 0 277.3 5.1 302.8 81.4 465.6 96.7 203.5 310.4 440.1 485.9 534.3 346 188.3 783.6 188.3 1129.6 0 175.5-94.1 389.2-330.7 485.9-534.3 76.3-165.4 81.4-188.3 81.4-470.7v-300.2h386.8l17.8 96.7c114.5 702.2-376.5 1465.4-1078.7 1679.1-201 61-498.7 86.5-687 55.9zM100 2247.1v-203.5h814.2v407H100v-203.5zm4477.7 0v-203.5h814.2v407h-814.2v-203.5z" transform="matrix(.1 0 0 -.1 0 511)"/><path d="M2354.1 1542.3c-7.6-53.4-152.6-1200.8-320.6-2551.8-167.9-1350.9-312.9-2498.3-320.6-2549.2l-15.3-96.7H5010V-4266H3916v-407h3816.2v407h-1094v610.6H9900l-15.3 96.7c-7.6 50.9-152.7 1198.3-320.5 2549.2-167.9 1350.9-312.9 2498.3-320.6 2551.8l-15.3 94.1H2369.4l-15.3-94.1zm2223.6-368.9c0-68.7-68.7-796.3-91.6-954L4473.4 110H2593.2v58.5c0 30.5 28 279.9 63.6 552.1 35.6 272.2 63.6 498.7 63.6 503.7 0 2.5 417.2 5.1 928.6 5.1h928.6v-56zm2238.8 12.8c0-25.4 22.9-274.8 50.9-554.6s50.9-511.4 50.9-513.9c0-5.1-457.9-7.6-1020.2-7.6H4877.9l15.3 122.1c17.8 134.8 91.6 915.9 91.6 966.8 0 22.9 201 30.5 915.9 30.5 854.7-.1 915.8-2.6 915.8-43.3zm2060.7 38.1c0-5.1 28-231.5 63.6-503.7s63.6-521.6 63.6-552.1V110H7327.8l-12.7 84c-17.8 101.8-91.6 910.8-91.6 982 0 53.4 7.6 53.4 826.8 53.4 455.5 0 826.9-2.5 826.9-5.1zM4425-378.5c0-104.3-99.2-1208.5-117-1284.8l-10.2-58.5H2364.2v53.4c0 71.3 152.6 1297.5 165.4 1340.8 7.6 22.9 221.3 30.5 954.1 30.5H4425v-81.4zm2587.4-516.4c30.5-320.6 61-638.6 68.7-704.7l12.7-122.1H4702.3l12.7 84c7.6 43.3 38.2 351.1 68.7 679.3 28 328.2 56 613.1 61.1 630.9 10.2 25.4 234.1 30.5 1060.9 25.4l1050.7-7.6 56-585.2zm2137.1-38.2c43.3-343.5 81.4-661.5 81.4-704.7l2.5-84h-1730l-10.2 58.5c-7.6 30.5-38.2 325.6-66.1 653.8S7368.6-386.1 7361-353l-10.2 56 857.4-5.1 859.9-7.6 81.4-623.4zM4262.2-2197.5c-7.6-40.7-33.1-292.6-56-559.7l-43.2-491H2155.7l12.7 71.2c7.6 38.2 38.2 290 71.2 559.7l58.5 488.5h1979.4l-15.3-68.7zm2869.8 12.7c15.3-73.8 91.6-905.7 91.6-994.8v-68.7h-2646v66.1c0 91.6 76.3 928.6 91.6 997.3l10.2 56h2442.4l10.2-55.9zm2221-389.3c30.5-236.6 61.1-485.9 68.7-552.1l17.8-122.1H7638.3L7595-2770c-22.9 262-50.9 513.9-58.5 559.7l-12.7 81.4 885.4-5.1 887.9-7.6 55.9-432.5zM6231.4-3960.6v-305.3h-814.2v610.6h814.2v-305.3zM1003.2 796.9L723.3 517.1l147.6-145 145-147.6 279.9 279.9c152.6 152.7 279.9 290 279.9 305.3 0 33.1-234.1 267.1-269.7 267.1-12.8 0-150.2-127.2-302.8-279.9z" transform="matrix(.1 0 0 -.1 0 511)"/></svg><svg id="star" data-name="Layer 1" width="66" height="66" viewBox="-1 -1 66 66" x="2715.54" y="1002"><defs><style>.ncls-1{fill:#d4953f}</style></defs><title>star</title><path class="ncls-1" d="M32 0l-8 24H0l20 16-8 24 20-16 20 16-8-24 20-16H40z"/></svg><svg id="twitter" data-name="Layer 1" width="53.78" height="44.06" viewBox="-1 -1 53.78 44.06" x="2653.54" y="1068"><defs><style>.ocls-1{fill:#fff}</style></defs><title>twitter</title><path class="ocls-1" d="M51.78 5a22.23 22.23 0 0 1-5.32 5.52v1.38a30.15 30.15 0 0 1-1.25 8.53 30.81 30.81 0 0 1-3.76 8.13 32.1 32.1 0 0 1-6.06 6.92 27 27 0 0 1-8.48 4.8 31 31 0 0 1-10.62 1.8A29.47 29.47 0 0 1 0 37.29a22.71 22.71 0 0 0 2.56.13 20.78 20.78 0 0 0 13.17-4.53 10.63 10.63 0 0 1-9.92-7.36 13.45 13.45 0 0 0 2 .16 11 11 0 0 0 2.79-.36 10.44 10.44 0 0 1-6.09-3.67 10.25 10.25 0 0 1-2.41-6.75v-.13a10.52 10.52 0 0 0 4.8 1.34 10.6 10.6 0 0 1-3.45-3.78 10.34 10.34 0 0 1-1.28-5.07 10.4 10.4 0 0 1 1.45-5.33 30.08 30.08 0 0 0 9.71 7.83A29.57 29.57 0 0 0 25.53 13a11.79 11.79 0 0 1-.26-2.43 10.23 10.23 0 0 1 3-7.48 10.64 10.64 0 0 1 15 0l.21.22A20.81 20.81 0 0 0 50.33.8a10.3 10.3 0 0 1-4.67 5.85A21.14 21.14 0 0 0 51.78 5z"/></svg><svg id="wifi" data-name="Layer 1" width="62" height="66" viewBox="-1 -1 62 66" x="2653.54" y="1002"><defs><style>.pcls-1{fill:#d4953e}</style></defs><title>wifi</title><path class="pcls-1" d="M29.88 0A55.39 55.39 0 0 0 0 8.72l4.22 6.48a47.32 47.32 0 0 1 25.66-7.28 47.31 47.31 0 0 1 25.9 7.28L60 8.72A55.53 55.53 0 0 0 29.88 0zm0 24a31.08 31.08 0 0 0-17 5l4.22 6.72A23.09 23.09 0 0 1 29.8 32a24.17 24.17 0 0 1 13 3.76L47 29a32.37 32.37 0 0 0-17.2-5h.07zm0 24a8 8 0 1 0 8 8 8 8 0 0 0-8-8z"/></svg><svg width="514" height="514" viewBox="-1 -1 514 514" id="wifi-2" x="1002" y="2002"><path d="M-612 320v96h96v-96h-96zm83 83h-70v-70h70v70z"/><path fill="#020202" d="M233.503 70.369c93.726-6.75 189.622 28.317 256.515 94.363 8.765 9.023 7.622 24.807-1.625 33.076-8.493 10.012-25.501 10.189-34.266.436-57.224-55.091-138.018-84.881-217.35-78.956-65.905 4.24-129.749 32.628-177.572 78.096-4.253 4.347-9.684 7.916-15.938 8.222-15.666 1.837-30.154-14.536-26.773-29.86.954-5.501 4.487-10.083 8.527-13.747 55.988-53.607 131.151-86.53 208.482-91.63z"/><path fill="#020202" d="M231.183 162.282c71.806-7.81 146.369 18.658 197.183 69.968 7.939 9.07 6.95 23.901-1.872 32.052-8.046 9.847-24.265 10.953-33.383 2.024-32.534-32.074-76.518-52.44-122.126-55.774-55.387-4.594-111.974 16.42-151.411 55.445-9.094 9.612-26.033 8.518-34.218-1.708-8.823-8.327-9.553-23.559-1.084-32.381 39.084-39.106 91.937-63.984 146.911-69.626z"/><path fill="#020202" d="M241.796 252.97c45.314-4.499 92.161 12.852 123.693 45.669 8.634 8.987 7.634 24.454-1.461 32.77-8.257 9.966-24.807 10.638-33.782 1.296-17.774-18.245-42.394-29.778-67.884-31.168-28.929-2.062-58.201 9.365-78.744 29.695-5.053 5.679-12.557 9.165-20.237 8.259-17.833-1.25-30.213-25.056-17.928-39.344 24.807-26.904 60.039-43.572 96.343-47.177z"/><path fill="#020202" d="M248.781 337.651c29.201-4.9 58.837 19.213 59.78 48.824 2.709 29.036-22.923 56.589-52.063 55.951-26.197.908-50.475-20.825-52.772-46.88-3.735-27.352 17.656-54.738 45.055-57.895z"/></svg><svg id="youtube" data-name="Layer 1" width="36.75" height="44" viewBox="-1 -1 36.75 44" x="2751.33" y="1068"><defs><style>.rcls-1{fill:#fff}</style></defs><title>youtube</title><path class="rcls-1" d="M22.13 29.15v5q0 1.57-.91 1.57a1.5 1.5 0 0 1-1.06-.52v-7.11a1.5 1.5 0 0 1 1.06-.54q.91 0 .91 1.6zm7.92 0v1.08h-2.1v-1.06q0-1.59 1.06-1.59t1 1.59zM7.42 24h2.5v-2.14h-7.3v2.2h2.46V37.4h2.34V24zm6.75 13.4h2.09V25.82h-2.09v8.86a1.86 1.86 0 0 1-1.31 1 .48.48 0 0 1-.49-.47 6.52 6.52 0 0 1 0-.82v-8.57h-2.14V35a5.79 5.79 0 0 0 .19 1.71 1.26 1.26 0 0 0 1.36.87 3.43 3.43 0 0 0 2.39-1.43v1.25zm10.05-3.47v-4.6A8.33 8.33 0 0 0 24 27a1.63 1.63 0 0 0-1.67-1.31A2.82 2.82 0 0 0 20.16 27v-5.1h-2.08v15.5h2.09v-1.13a2.91 2.91 0 0 0 2.18 1.31A1.62 1.62 0 0 0 24 36.27a8.61 8.61 0 0 0 .22-2.35zm7.92-.24v-.3H30a11.6 11.6 0 0 1 0 1.43.9.9 0 0 1-.94.85q-1.08 0-1.08-1.61V32h4.19v-2.41a4.65 4.65 0 0 0-.66-2.72 3.2 3.2 0 0 0-5 0 4.52 4.52 0 0 0-.66 2.72v4.05a4.4 4.4 0 0 0 .66 2.72 3 3 0 0 0 2.49 1.2 2.9 2.9 0 0 0 3-2.51 10.31 10.31 0 0 0 .09-1.36zM17.89 12.3V7.38q0-1.61-1-1.61t-1 1.61v4.92q0 1.64 1 1.64t1-1.64zm16.85 17.6a40.6 40.6 0 0 1-.61 8.2 4.45 4.45 0 0 1-1.36 2.32 4.1 4.1 0 0 1-2.39 1.08 125.31 125.31 0 0 1-13 .49 125.31 125.31 0 0 1-13-.49A4.15 4.15 0 0 1 2 40.42 4.28 4.28 0 0 1 .63 38.1 39.76 39.76 0 0 1 0 29.9a40.6 40.6 0 0 1 .61-8.2A4.45 4.45 0 0 1 2 19.37a4.25 4.25 0 0 1 2.41-1.1q4.29-.47 13-.47t13 .47a4.4 4.4 0 0 1 3.75 3.42 39.76 39.76 0 0 1 .58 8.21zM11.35 0h2.39l-2.83 9.35v6.35H8.57V9.35a39.68 39.68 0 0 0-1.43-5Q6.27 2 5.61 0H8.1l1.67 6.16zM20 7.8v4.1a4.59 4.59 0 0 1-.66 2.76 2.88 2.88 0 0 1-2.49 1.19 2.9 2.9 0 0 1-2.46-1.19 4.68 4.68 0 0 1-.66-2.76V7.8a4.59 4.59 0 0 1 .66-2.74 2.9 2.9 0 0 1 2.46-1.19 2.88 2.88 0 0 1 2.49 1.19A4.59 4.59 0 0 1 20 7.8zM27.87 4v11.7h-2.13v-1.27a3.37 3.37 0 0 1-2.41 1.45A1.31 1.31 0 0 1 22 15a6 6 0 0 1-.19-1.76V4h2.13v8.6a6.14 6.14 0 0 0 0 .82.49.49 0 0 0 .47.52 1.87 1.87 0 0 0 1.31-1V4h2.16z"/></svg></svg>
