<?xml version="1.0" encoding="utf-8"?>
<!-- Svg Vector Icons : http://www.onlinewebfonts.com/icon -->
<!DOCTYPE svg PUBLIC "-//W3C//DTD SVG 1.1//EN" "http://www.w3.org/Graphics/SVG/1.1/DTD/svg11.dtd">
<svg version="1.1" xmlns="http://www.w3.org/2000/svg" xmlns:xlink="http://www.w3.org/1999/xlink" x="0px" y="0px" viewBox="0 0 1000 1000" enable-background="new 0 0 1000 1000" xml:space="preserve">
<metadata> Svg Vector Icons : http://www.onlinewebfonts.com/icon </metadata>
<g><g transform="translate(0.000000,511.000000) scale(0.100000,-0.100000)"><path d="M4763,4435.8c-188.5-86.2-193.9-118.5-193.9-1031.5c0-781,0-794.5,61.9-883.4c40.4-59.2,102.3-105,175.1-132c99.7-35,126.6-35,226.2,0c59.2,21.5,137.3,75.4,167,115.8c53.9,72.7,56.5,107.7,56.5,904.9c0,743.3-5.4,834.9-48.5,899.5C5102.3,4470.8,4938.1,4516.6,4763,4435.8z"/><path d="M6475.8,3872.9l-88.8-78.1l-8.1-579c-10.8-673.3,5.4-746,172.4-816c132-56.6,250.5-29.6,350.1,72.7l78.1,80.8l8,476.7c13.5,614.1-2.7,746-102.3,845.7C6774.8,3983.3,6599.8,3983.3,6475.8,3872.9z"/><path d="M3017.8,3522.8c-158.9-97-172.4-140.1-172.4-549.4c0-428.2,26.9-509,180.4-576.3c123.9-51.2,250.5-26.9,334,62c61.9,64.6,64.6,91.6,80.8,490.1c8.1,231.6,5.4,449.8-5.4,482.1c-26.9,72.7-153.5,142.7-258.5,142.7C3136.3,3574,3063.6,3549.7,3017.8,3522.8z"/><path d="M1121.8,1594.5c-18.9-24.2-40.4-102.3-48.5-175.1l-13.5-134.7H623.6c-387.8,0-441.7-5.4-479.4-48.5c-67.3-75.4-56.6-180.4,24.2-245.1c67.3-51.2,107.7-56.6,511.7-56.6h439l29.6-153.5c183.1-948,681.4-1815.2,1370.8-2388.9c379.7-317.8,708.3-506.3,1292.7-746c43.1-18.8,53.9-35,37.7-59.2c-175.1-223.6-1117.7-1537.8-1141.9-1589c-72.7-158.9,78.1-307,231.6-228.9c40.4,21.5,315.1,377,667.9,869.9c689.5,958.8,549.4,859.1,1109.6,794.5c277.4-29.6,667.9-26.9,966.8,8.1c40.4,2.7,199.3-193.9,667.9-829.5c404-549.4,638.3-843,681.4-856.4c110.4-37.7,212.8,29.6,223.5,145.4c8.1,88.9-37.7,158.9-546.7,845.7c-304.4,409.4-557.5,756.8-560.2,772.9c-2.7,13.5,105,64.6,239.7,113.1C7464.3-1979.4,8380-1063.7,8783.9,29.7c80.8,220.9,150.8,484.8,218.1,818.7c10.8,59.3,18.8,59.3,412.1,59.3c352.8,0,404,5.4,441.6,48.5c67.3,75.4,56.6,180.4-24.2,245.1c-64.6,51.2-107.7,56.6-471.3,56.6H8959v115.8c0,226.2,379.7,207.4-3913.2,207.4c-2512.7,0-3818.9,8.1-3829.7,26.9C1191.8,1645.6,1159.5,1640.3,1121.8,1594.5z"/></g></g>
</svg>
